<?xml version="1.0" encoding="UTF-8" standalone="no"?>
<!-- Generator: Adobe Illustrator 17.0.1, SVG Export Plug-In . SVG Version: 6.00 Build 0)  -->

<svg
   xmlns:dc="http://purl.org/dc/elements/1.1/"
   xmlns:cc="http://creativecommons.org/ns#"
   xmlns:rdf="http://www.w3.org/1999/02/22-rdf-syntax-ns#"
   xmlns:svg="http://www.w3.org/2000/svg"
   xmlns="http://www.w3.org/2000/svg"
   xmlns:sodipodi="http://sodipodi.sourceforge.net/DTD/sodipodi-0.dtd"
   xmlns:inkscape="http://www.inkscape.org/namespaces/inkscape"
   version="1.1"
   x="0px"
   y="0px"
   width="230.0009"
   height="236.83569"
   viewBox="0 0 230.00091 236.83569"
   enable-background="new 0 0 86 86"
   xml:space="preserve"
   id="svg33"
   sodipodi:docname="cover_top.svg"
   inkscape:version="0.92.3 (2405546, 2018-03-11)"
   inkscape:export-xdpi="96.22377"
   inkscape:export-ydpi="96.22377"><metadata
   id="metadata39"><rdf:RDF><cc:Work
       rdf:about=""><dc:format>image/svg+xml</dc:format><dc:type
         rdf:resource="http://purl.org/dc/dcmitype/StillImage" /><dc:title></dc:title></cc:Work></rdf:RDF></metadata><defs
   id="defs37" /><sodipodi:namedview
   pagecolor="#ffffff"
   bordercolor="#666666"
   borderopacity="1"
   objecttolerance="10"
   gridtolerance="10"
   guidetolerance="10"
   inkscape:pageopacity="0"
   inkscape:pageshadow="2"
   inkscape:window-width="1366"
   inkscape:window-height="704"
   id="namedview35"
   showgrid="false"
   inkscape:zoom="1.4142136"
   inkscape:cx="190.42653"
   inkscape:cy="109.65892"
   inkscape:window-x="0"
   inkscape:window-y="27"
   inkscape:window-maximized="1"
   inkscape:current-layer="layer1" />
<g
   id="Layer_2"
   display="none"
   style="display:none"
   transform="translate(67.965133,80.146452)">
</g>
<g
   id="Layer_1"
   transform="translate(67.965133,80.146452)">
	
		<linearGradient
   id="SVGID_1_"
   gradientUnits="userSpaceOnUse"
   x1="1277.1947"
   y1="602.01941"
   x2="1359.9706"
   y2="569.1673"
   gradientTransform="rotate(-90,423.0688,939.6071)">
		<stop
   offset="0"
   style="stop-color:#254683;stop-opacity:1"
   id="stop3" />
		<stop
   offset="0.9897"
   style="stop-color:#08740c;stop-opacity:1"
   id="stop5" />
	</linearGradient>
	
	
	
	
	
	
<g
   transform="matrix(-0.09903369,0.03131547,-0.03131547,-0.09903369,117.46687,88.367412)"
   id="layer1"
   inkscape:label="Layer 1"><path
     inkscape:connector-curvature="0"
     id="path3766"
     d="m -864.08786,1373.3737 c -9.04285,-10.3976 -12.1711,-28.0414 -7.34636,-40.5365 56.80507,-147.1131 204.05432,-343.98543 325.34177,-479.06557 103.34992,-244.12 330.49847,-487.41271 674.80004,-640.97095 237.50466,-105.92686 484.24122,-116.577268 742.61817,6.1568 68.48054,32.52954 141.50384,55.17534 218.38454,59.41419 58.8458,17.38051 119.0631,24.41474 179.3369,11.33474 C 802.99685,525.36779 286.64452,365.55009 -217.56747,577.90161 199.78634,410.02055 801.10616,497.20992 1189.8337,358.04512 845.64238,609.21136 435.95162,619.53154 -5.5276708,774.31642 -168.8304,831.5711 -323.62112,902.0224 -478.88229,1007.0902 c -37.91912,25.6604 -74.67022,53.1859 -111.94759,79.7699 40.92958,-24.5895 81.2764,-50.264 122.79434,-73.8463 C -322.13612,930.14198 -169.86787,836.33266 3.7883052,784.33247 358.50393,678.11536 750.85288,601.24026 1115.1646,448.84391 880.69419,610.98716 686.12428,746.63233 457.5874,871.97626 255.04506,983.06318 37.300003,1058.6043 -200.27321,1135.9182 c -204.57248,66.5743 -407.6745,128.4836 -624.86574,211.904 197.26178,-65.2884 413.28848,-117.8584 625.66279,-190.9623 C 11.169463,1084.3512 259.90936,992.52203 472.62685,876.66899 736.26144,733.08496 987.07161,561.82545 1265.3086,392.92586 1157.1495,479.04284 1039.3376,563.31427 935.53165,669.96041 679.58966,932.90477 394.35649,1188.5677 18.799749,1333.7974 c -127.865869,49.4465 -279.904779,70.605 -425.301489,99.0123 139.44256,-20.4705 284.8608,-24.5079 426.198527,-80.8322 C 354.65647,1218.4932 678.4834,958.02944 947.97573,674.73198 1065.0972,551.61083 1268.5581,404.96941 1390.9829,354.0963 1280.1352,458.09386 1265.3445,492.54231 1184.1057,592.5464 1083.3465,716.58002 1045.5849,881.59007 956.58928,1014.3175 816.15762,1223.7557 563.26852,1406.3091 292.1149,1508.5804 548.11995,1420.9617 771.35792,1292.3819 968.86689,1018.91 1061.791,890.247 1090.0738,713.28407 1202.3858,588.88769 c 98.3786,-108.96394 169.5035,-247.67942 411.6311,-337.15442 -117.8114,137.72872 -169.8915,237.2564 -185.1242,291.60677 -33.2536,72.19097 -58.4548,153.34037 -71.9065,248.35083 -26.6523,188.24244 -181.815,550.37383 -445.12368,703.55953 -19.97428,11.6205 -35.92982,9.6397 -57.19916,18.8412 -20.56792,8.898 -42.5088,32.8534 -63.67666,40.211 -267.93171,93.129 -559.33239,159.3033 -871.978734,105.8209 -83.390186,-14.265 -160.051796,-55.588 -242.153266,-76.003 -190.73555,-47.4273 -363.34491,-75.064 -536.5923,-206.787 -1.52338,-1.158 -3.0584,-2.4746 -4.35026,-3.9598 z"
     style="fill:#ffffff;fill-opacity:1;stroke:none;stroke-width:3.69925237" /></g></g>
</svg>
