<?xml version="1.0" encoding="UTF-8" standalone="no"?>
<!-- Generator: Adobe Illustrator 17.0.1, SVG Export Plug-In . SVG Version: 6.00 Build 0)  -->

<svg
   xmlns:dc="http://purl.org/dc/elements/1.1/"
   xmlns:cc="http://creativecommons.org/ns#"
   xmlns:rdf="http://www.w3.org/1999/02/22-rdf-syntax-ns#"
   xmlns:svg="http://www.w3.org/2000/svg"
   xmlns="http://www.w3.org/2000/svg"
   xmlns:sodipodi="http://sodipodi.sourceforge.net/DTD/sodipodi-0.dtd"
   xmlns:inkscape="http://www.inkscape.org/namespaces/inkscape"
   version="1.1"
   x="0px"
   y="0px"
   width="86px"
   height="86px"
   viewBox="0 0 86 86"
   enable-background="new 0 0 86 86"
   xml:space="preserve"
   id="svg33"
   sodipodi:docname="icon-plantago.svg"
   inkscape:version="0.92.3 (2405546, 2018-03-11)"
   inkscape:export-filename="/home/jussi24/koodi/sfos-projects/harbour-yrttipiha/icons/86x86/harbour-yrttipiha.png"
   inkscape:export-xdpi="96.22377"
   inkscape:export-ydpi="96.22377"><metadata
   id="metadata39"><rdf:RDF><cc:Work
       rdf:about=""><dc:format>image/svg+xml</dc:format><dc:type
         rdf:resource="http://purl.org/dc/dcmitype/StillImage" /><dc:title /></cc:Work></rdf:RDF></metadata><defs
   id="defs37" /><sodipodi:namedview
   pagecolor="#ffffff"
   bordercolor="#666666"
   borderopacity="1"
   objecttolerance="10"
   gridtolerance="10"
   guidetolerance="10"
   inkscape:pageopacity="0"
   inkscape:pageshadow="2"
   inkscape:window-width="1366"
   inkscape:window-height="704"
   id="namedview35"
   showgrid="false"
   inkscape:zoom="2.8284272"
   inkscape:cx="1.5880034"
   inkscape:cy="41.798103"
   inkscape:window-x="0"
   inkscape:window-y="27"
   inkscape:window-maximized="1"
   inkscape:current-layer="Layer_1" />
<g
   id="Layer_2"
   display="none">
</g>
<g
   id="Layer_1">
	
		<linearGradient
   id="SVGID_1_"
   gradientUnits="userSpaceOnUse"
   x1="1277.1947"
   y1="602.0194"
   x2="1359.9706"
   y2="569.1673"
   gradientTransform="matrix(0 -1 1 0 -516.5383 1362.6759)">
		<stop
   offset="0"
   style="stop-color:#254683;stop-opacity:1"
   id="stop3" />
		<stop
   offset="0.9897"
   style="stop-color:#08740c;stop-opacity:1"
   id="stop5" />
	</linearGradient>
	<path
   d="M0.1,1.53V43c0,23.693,19.208,42.9,42.9,42.9h41.47c0.79,0,1.43-0.64,1.43-1.43V43   C85.9,19.306,66.692,0.1,43,0.1H1.53C0.74,0.1,0.1,0.74,0.1,1.53z"
   id="path8"
   style="fill-opacity:1;fill:url(#SVGID_1_)"
   fill="url(#SVGID_1_)"
   inkscape:export-xdpi="96"
   inkscape:export-ydpi="96" />
	
	
	
	
	
<g
   transform="matrix(-0.09903369,0.03131547,-0.03131547,-0.09903369,117.46687,88.367412)"
   id="layer1"
   inkscape:label="Layer 1"><path
     sodipodi:nodetypes="cssscssssssssscc"
     inkscape:connector-curvature="0"
     id="path2996"
     d="m 593.10937,1026.0902 c -1.64089,-32.48997 -3.6565,-64.96338 -4.92272,-97.47009 C 585.2812,854.03145 546.8072,819.11185 501.30774,801.03699 435.01193,774.70068 395.04332,727.84611 374.04795,666.4848 c -30.4362,-88.95318 -24.56375,-171.77197 2.46136,-232.10664 4.06697,-45.09053 15.02773,-105.43083 32.24387,-140.79004 1.67119,-3.43232 6.33009,-6.06662 10.09162,-5.41501 53.47859,9.26421 87.84018,36.09607 128.89591,62.87081 17.67231,11.52509 38.22999,18.52312 54.99815,31.32806 62.86717,48.00824 100.29294,112.4336 128.7931,177.17753 2.25166,5.11508 1.61244,13.18162 3.4809,18.44876 1.9322,5.44676 4.99649,8.04077 6.26697,13.66191 16.74814,74.09993 -23.06296,163.92263 -52.91096,200.76123 -41.68843,51.45215 -48.61276,101.4791 -53.60577,152.46318 -2.23931,22.86575 0.46411,45.94774 0.69617,68.92161 -16.24388,-1.1104 -29.24736,5.8443 -42.3499,12.284 z"
     style="fill:#b5b7b3;fill-opacity:1;stroke:none;stroke-width:0.92253536" /><path
     inkscape:connector-curvature="0"
     id="path3766"
     d="m 417.38121,288.06471 c -3.43452,0.11462 -7.18776,2.54006 -8.65003,5.54332 -17.21615,35.35922 -28.15742,95.68557 -32.22438,140.7761 -27.02511,60.33467 -32.87282,143.13549 -2.43663,232.08867 20.99537,61.3613 60.95701,108.22639 127.25282,134.56269 17.57111,6.98019 34.10894,16.46865 47.94062,29.78776 13.16837,7.79377 24.68039,17.59527 32.52896,30.82332 C 545.67091,736.51639 428.788,669.37 381.92829,541.23019 422.15642,645.95595 540.20792,740.95354 580.81792,835.57467 568.2245,730.06357 500.52593,653.49776 453.80877,546.59077 436.52813,507.04599 423.10301,466.81422 415.91923,420.61719 c -1.75447,-11.28259 -2.97001,-22.66866 -4.44685,-33.99094 2.46137,11.65044 4.62562,23.37873 7.3708,34.96559 9.64692,40.71765 18.37825,84.45598 38.37687,124.99893 40.84983,82.81433 93.44953,167.51727 127.49647,259.92713 C 574.50209,736.16272 566.2257,677.59422 550.29917,614.57265 536.18417,558.71936 512.99612,506.12714 486.76414,449.61304 464.17597,400.94917 440.98567,353.34617 419.3305,299.51685 c 21.58133,47.11044 48.67224,95.48738 71.39316,146.68492 22.53597,50.78079 48.01394,111.79935 62.98679,170.32018 18.55683,72.52866 29.88175,147.41596 46.29591,226.91084 -2.64442,-34.37716 -7.26525,-70.20352 -5.4215,-107.27248 4.54591,-91.39645 2.78721,-186.90498 -34.47826,-280.15112 -12.68779,-31.74753 -34.64682,-63.10474 -54.15403,-94.48019 19.94527,28.94016 43.90628,56.18048 57.62622,91.55624 32.5152,83.83786 39.95206,187.20936 33.99094,284.53705 -2.5907,42.29864 5.18777,104.35837 16.69089,135.35459 0.16413,-37.90501 3.9426,-46.45673 8.40636,-78.27662 5.53635,-39.46572 29.25504,-74.38713 38.37686,-113.1813 14.39388,-61.21564 4.77823,-138.40077 -22.59971,-205.28578 27.48075,61.63013 41.9164,124.23365 25.52367,206.74776 -7.71245,38.82127 -35.22377,74.04184 -38.86419,115.67883 -3.18881,36.47154 -16.43936,73.01941 8.34544,132.43065 5.14097,-44.90562 14.47013,-71.31998 21.80781,-83.33262 7.53479,-18.33351 18.07312,-36.71811 33.13812,-55.31142 29.84799,-36.83859 69.62293,-126.67808 52.87479,-200.77801 -1.27048,-5.62115 -4.34212,-8.19836 -6.27431,-13.64511 -1.86846,-5.26714 -1.22054,-13.34236 -3.47219,-18.45745 C 703.0231,494.82188 665.61472,430.3704 602.74756,382.36216 585.9794,369.55722 565.41302,362.57659 547.74071,351.05151 506.68498,324.27676 472.32177,297.45075 418.84318,288.18654 c -0.47019,-0.0815 -0.97133,-0.1382 -1.46197,-0.12183 z"
     style="fill:#fcfcfa;fill-opacity:1;stroke:none;stroke-width:0.92253536" /></g></g>
</svg>